<svg width="312" height="120" viewBox="0 0 312 120" fill="none" xmlns="http://www.w3.org/2000/svg">
<path d="M217.665 17.7286C218.669 20.0109 219.745 20.9913 222.309 22.3644C234.938 25.4062 242.239 26.1029 255.742 25.1458C278.133 24.7665 287.468 22.5332 298.462 15.8743M217.665 17.7286C225.028 12.3054 229.916 10.3935 239.954 8.92076C257.509 6.65783 267.274 6.45503 284.532 7.99361C292.059 8.9141 295.009 10.7421 298.462 15.8743M217.665 17.7286C215.218 21.7357 214.018 23.8521 212.093 27.4636M298.462 15.8743C299.168 17.738 298.927 18.6557 298.462 21.4372M207.449 33.4901C207.484 31.0431 208.329 29.7146 212.093 27.4636M207.449 33.4901C205.895 36.2998 205.6 37.7422 206.521 39.9801C214.007 45.7437 215.663 45.8063 219.058 46.4701M207.449 33.4901C212.388 39.2672 226.097 41.2176 255.278 39.9801C291.249 36.9513 299.192 32.5972 304.035 25.8961M212.093 27.4636C210.028 34.0658 213.475 36.0488 226.023 37.1986C242.859 38.5822 250.675 38.1747 263.636 36.7351C283.272 32.1837 292.48 29.2072 298.462 21.4372M219.058 46.4701C220.47 56.3411 223.895 58.6238 231.131 61.3044C241.892 65.2022 247.792 66.1461 258.064 65.4766C259.435 70.2652 258.528 71.503 259.921 77.5294C260.382 78.5432 260.586 80.1544 260.85 81.7016C260.031 86.9741 258.975 89.6423 255.742 93.7545C253.589 94.8398 252.436 94.8839 250.634 92.3637C249.748 90.3957 249.666 89.4175 249.705 87.728C254.631 87.0304 256.719 85.7081 259.921 82.6287C260.224 81.7189 260.302 81.1556 259.921 79.8473C258.282 78.5107 257.807 77.8041 257.599 76.6023M219.058 46.4701C233.658 52.468 241.905 53.4231 256.671 52.9601C276.01 52.8178 283.385 51.9235 291.962 49.2515M291.962 49.2515C287.097 60.3755 281.662 63.7726 267.815 65.4766C270.22 71.3643 270.966 74.4917 271.53 79.8473C272.508 89.2404 272.307 94.2454 271.53 103.026C270.609 108.393 269.144 110.608 265.493 113.688C262.014 114.06 260.074 114.146 256.671 113.688C251.874 108.994 249.56 105.921 245.991 99.7809C245.564 95.7534 245.563 93.4819 245.991 89.3788C241.339 90.1945 238.524 90.401 232.524 89.5823C230.375 88.824 229.657 87.915 229.738 84.9466M291.962 49.2515C303.408 46.0574 309.607 43.2251 311 39.9801C311 35.4128 307.413 29.7556 304.035 25.8961M298.462 21.4372C299.243 21.2423 301.584 23.0961 304.035 25.8961M257.599 76.6023C257.495 75.7 257.306 75.1924 256.671 74.2844M257.599 76.6023C256.268 79.7398 254.45 81.4773 246.455 84.483C240.269 86.0243 236.633 86.22 229.738 84.9466M256.671 74.2844C256.388 73.6009 256.068 73.3045 255.278 72.8937C251.231 72.1596 249.18 72.1268 245.991 72.8937C240.839 73.1963 238.667 73.9595 235.775 76.1387C233.46 77.6812 232.037 78.9652 231.131 80.4844M256.671 74.2844C253.841 77.2791 251.602 78.6837 245.526 80.3108C240.011 81.7726 236.886 82.1658 231.131 80.4844M229.738 84.9466C229.995 83.1229 230.391 81.7252 231.131 80.4844" stroke="#2D710E"/>
<path d="M26.5315 15.2066C25.0352 13.9863 24.367 13.1837 24.219 11.0293C24.9874 9.0783 25.9438 8.62494 28.3815 8.7085C30.8997 7.84275 32.3188 7.80518 34.8566 8.24435C37.262 8.09478 38.1213 8.4463 39.0191 9.6368C39.2998 9.01536 41.2799 8.9971 42.2566 9.6368C41.909 8.9366 41.8125 8.48565 42.2566 7.31605C43.5208 6.45413 44.2299 6.58788 45.4942 7.31605C45.9329 5.50615 46.6794 4.70953 48.7317 3.60284C51.4115 3.59903 52.5453 4.38227 54.2817 6.38775C57.9292 3.04178 60.1677 1.97245 64.4568 1.28208C65.9595 0.889374 66.6478 0.922944 67.6943 1.28208C67.9212 3.41398 67.5168 4.53371 65.8443 6.38775C69.3614 5.37771 71.0988 5.34094 73.7069 6.38775C73.9569 7.13444 73.9986 7.61583 73.7069 8.7085C82.9758 13.1918 86.7517 16.9996 92.6695 26.8104H91.282C92.6543 28.3601 93.2756 29.271 94.057 30.9877C92.9995 31.5403 92.1874 31.6401 90.357 31.4519C95.1131 36.1868 97.1946 39.2687 100.07 45.3764C100.504 46.8265 99.607 48.6255 99.607 48.6255C96.9877 49.0546 95.803 49.4757 92.6695 49.0896C94.4847 51.934 95.1284 53.5571 95.4445 56.5161C94.3651 56.884 93.631 56.834 92.207 56.5161L93.132 58.8368C93.8785 60.0303 93.7052 60.7471 94.057 62.0859C94.1935 63.0151 94.2202 63.5942 94.057 64.8708H91.282C92.14 70.5692 91.9563 73.129 92.6695 79.7236C92.1278 80.2138 91.8237 80.3076 91.282 79.7236V73.6897H90.357C90.4969 72.4373 90.4926 71.9369 90.357 71.3689L89.432 70.9047C89.432 70.9047 89.3413 67.1802 88.9695 64.8708H84.8069V86.6859C83.6019 91.402 82.2393 93.0878 79.7194 95.9689C81.3928 92.385 82.7498 90.3459 82.9569 85.7576V64.4066C81.4107 65.3962 80.0509 64.6441 78.3319 63.4783L77.4069 74.618C77.3203 77.767 76.4937 78.8709 73.7069 79.7236C70.5581 79.0676 69.4581 77.9336 68.6193 74.618L69.0818 63.4783C67.1195 63.1442 66.1762 63.5329 64.9193 61.6217C64.4133 62.0427 64.1214 62.1798 63.5318 61.6217C63.7831 62.6991 63.5891 63.03 63.0693 63.4783C62.2432 63.9931 61.7443 64.0386 60.7568 63.4783V77.867C63.7266 83.5106 64.8969 83.9309 69.0818 85.7576C71.3943 89.935 67.2318 95.5048 70.0068 100.61C70.4693 102.931 69.6179 104.211 70.0068 106.18C68.3263 106.792 67.3144 106.795 65.3818 106.18C64.9803 104.431 64.3157 103.729 61.6818 103.395C62.154 101.943 62.1518 101.133 61.6818 99.6821C61.1227 97.3055 60.0331 95.4603 57.5192 91.7915C56.8819 95.8941 56.8891 98.1278 57.5192 102.003C59.7001 104.74 60.9123 105.409 63.0693 106.18C63.0399 107.936 63.0426 108.952 63.0693 110.822C62.1253 108.333 61.3573 107.259 59.3692 106.18C57.3043 105.78 56.3079 105.129 54.7442 103.395C54.8344 105.435 55.1747 106.308 56.5942 107.109V112.214C54.4173 114.41 53.3022 115.818 53.3567 118.712C51.7311 119.085 50.82 119.107 49.1942 118.712C48.8929 116.569 48.8432 115.283 49.1942 112.678C47.3094 112.543 46.05 112.16 43.6441 110.822C41.3607 108.986 40.3851 107.74 39.0191 105.252C38.5007 103.439 38.541 102.423 39.0191 100.61C42.1202 98.3687 43.4306 96.7374 45.0316 93.184C44.4682 89.7748 43.1634 88.4485 39.0191 87.15C33.0894 90.5174 31.1272 93.1483 29.3065 98.7538C29.6764 102.006 30.3626 103.35 32.0816 105.252C32.4623 107.681 31.5983 108.189 29.3065 108.501C25.8019 107.72 24.0959 106.542 21.9065 102.003C21.3868 99.7051 21.4129 98.3809 21.9065 95.9689C22.0152 91.2048 22.9761 89.1385 25.144 85.7576C27.0078 82.8526 28.1223 81.9981 32.5441 81.1161C34.033 79.7841 35.7418 79.5118 36.7066 77.867C35.6005 75.0401 35.3446 73.2909 35.3191 69.9764C35.3367 66.7041 36.2071 64.9848 39.0191 62.0859C39.3824 60.3836 39.3666 59.2529 39.0191 56.9802C36.1645 61.7761 34.0052 63.2016 29.769 64.8708V76.0104C29.0968 79.7493 27.6265 80.7023 24.219 81.5802C21.971 81.0922 21.0435 80.3057 20.0565 77.867V72.7613C19.3334 72.309 18.9565 72.3986 18.2065 72.3986C17.6739 71.5435 18.514 71.1261 18.2065 69.9764C15.8818 71.3701 14.3278 71.5986 11.2689 71.3689C11.4931 73.9637 11.4864 75.386 11.2689 77.867C12.0303 79.7311 12.3174 80.5144 12.6564 81.5802C13.5856 83.0592 13.7681 83.979 13.5814 85.7576C13.735 87.8711 14.1847 88.9785 14.0439 90.8632C14.7914 93.0364 14.5012 94.3719 14.5064 96.8972C14.0902 99.6649 13.6157 101.036 12.6564 103.395C11.569 103.399 10.8863 103.474 11.2689 102.003C12.1766 99.4416 12.4449 97.902 12.6564 95.0406C12.4748 92.6165 12.6564 90.3991 12.1939 89.4708C12.1939 87.1563 12.0015 86.8653 11.2748 85.7665L11.2689 85.7576C11.4437 84.0718 11.1797 83.1536 9.8814 81.5802C9.85158 80.2468 9.56455 79.4357 8.49389 77.867C8.8028 75.0835 8.76337 73.6922 8.49389 71.3689C6.57676 72.069 5.55913 72.0932 3.86886 71.3689C3.39629 69.4369 3.49348 68.3317 5.25637 66.2632C3.82983 66.3551 3.14742 66.1891 2.48135 64.8708C-0.0312059 62.8411 1.12679 60.6287 2.48135 56.9802C2.71346 53.8071 3.21592 52.0678 5.25637 49.0896C3.42628 48.9311 2.72537 48.5163 2.48135 46.7689C2.53466 44.6377 3.10203 43.6089 5.25637 42.1274C3.43494 41.4932 2.70668 40.8854 2.48135 38.8783C2.19902 36.1892 2.34205 34.8027 3.86886 32.8443C6.17683 26.5903 8.65349 24.1671 13.5814 20.3123C17.9215 16.4863 20.8772 15.6753 26.5315 15.2066Z" stroke="#2D710E"/>
<path d="M18.529 69.8333C18.7279 70.419 18.7215 70.6961 18.529 71.1159C18.3947 71.532 18.3929 71.7203 18.529 71.971C19.4056 71.9273 19.9417 72.1746 20.2391 72.3986C20.5366 72.6225 20.6053 72.7301 20.6667 72.8261V77.9565C21.7392 79.8348 22.4569 80.5732 24.087 80.9493C25.8777 80.5659 26.7026 80.1742 27.9348 79.2391C28.7654 77.9594 29.0016 77.3192 29.2174 76.2464V65.1304" stroke="#2D710E"/>
<path d="M17.6739 70.2609L30.0724 64.7029" stroke="#2D710E"/>
<path d="M68.9783 63.4203H78.3841" stroke="#2D710E"/>
<path d="M69.8334 63.4203L69.4058 74.5362C70.5158 77.6274 71.5669 78.3487 73.6812 78.8116C75.5353 78.4051 76.1453 77.3871 76.6739 74.5362L77.529 63.4203" stroke="#2D710E"/>
</svg>
