<svg id="visual" viewBox="0 0 960 540" width="960" height="540" xmlns="http://www.w3.org/2000/svg" xmlns:xlink="http://www.w3.org/1999/xlink" version="1.1"><rect x="0" y="0" width="960" height="540" fill="#001220"></rect><path d="M0 315L22.8 329.7C45.7 344.3 91.3 373.7 137 380.5C182.7 387.3 228.3 371.7 274 361C319.7 350.3 365.3 344.7 411.2 351.7C457 358.7 503 378.3 548.8 374.5C594.7 370.7 640.3 343.3 686 338C731.7 332.7 777.3 349.3 823 359C868.7 368.7 914.3 371.3 937.2 372.7L960 374L960 541L937.2 541C914.3 541 868.7 541 823 541C777.3 541 731.7 541 686 541C640.3 541 594.7 541 548.8 541C503 541 457 541 411.2 541C365.3 541 319.7 541 274 541C228.3 541 182.7 541 137 541C91.3 541 45.7 541 22.8 541L0 541Z" fill="#c7fa69"></path><path d="M0 402L22.8 396C45.7 390 91.3 378 137 381.3C182.7 384.7 228.3 403.3 274 408.5C319.7 413.7 365.3 405.3 411.2 402C457 398.7 503 400.3 548.8 399.3C594.7 398.3 640.3 394.7 686 389.3C731.7 384 777.3 377 823 371.2C868.7 365.3 914.3 360.7 937.2 358.3L960 356L960 541L937.2 541C914.3 541 868.7 541 823 541C777.3 541 731.7 541 686 541C640.3 541 594.7 541 548.8 541C503 541 457 541 411.2 541C365.3 541 319.7 541 274 541C228.3 541 182.7 541 137 541C91.3 541 45.7 541 22.8 541L0 541Z" fill="#80c964"></path><path d="M0 398L22.8 397.2C45.7 396.3 91.3 394.7 137 397.3C182.7 400 228.3 407 274 412.8C319.7 418.7 365.3 423.3 411.2 430.3C457 437.3 503 446.7 548.8 450.8C594.7 455 640.3 454 686 446.8C731.7 439.7 777.3 426.3 823 422.8C868.7 419.3 914.3 425.7 937.2 428.8L960 432L960 541L937.2 541C914.3 541 868.7 541 823 541C777.3 541 731.7 541 686 541C640.3 541 594.7 541 548.8 541C503 541 457 541 411.2 541C365.3 541 319.7 541 274 541C228.3 541 182.7 541 137 541C91.3 541 45.7 541 22.8 541L0 541Z" fill="#479859"></path><path d="M0 488L22.8 482.2C45.7 476.3 91.3 464.7 137 459C182.7 453.3 228.3 453.7 274 458.7C319.7 463.7 365.3 473.3 411.2 473.8C457 474.3 503 465.7 548.8 457.3C594.7 449 640.3 441 686 444.3C731.7 447.7 777.3 462.3 823 464C868.7 465.7 914.3 454.3 937.2 448.7L960 443L960 541L937.2 541C914.3 541 868.7 541 823 541C777.3 541 731.7 541 686 541C640.3 541 594.7 541 548.8 541C503 541 457 541 411.2 541C365.3 541 319.7 541 274 541C228.3 541 182.7 541 137 541C91.3 541 45.7 541 22.8 541L0 541Z" fill="#1b6747"></path><path d="M0 480L22.8 480.7C45.7 481.3 91.3 482.7 137 488.7C182.7 494.7 228.3 505.3 274 510.2C319.7 515 365.3 514 411.2 513.3C457 512.7 503 512.3 548.8 505.8C594.7 499.3 640.3 486.7 686 484.7C731.7 482.7 777.3 491.3 823 497.2C868.7 503 914.3 506 937.2 507.5L960 509L960 541L937.2 541C914.3 541 868.7 541 823 541C777.3 541 731.7 541 686 541C640.3 541 594.7 541 548.8 541C503 541 457 541 411.2 541C365.3 541 319.7 541 274 541C228.3 541 182.7 541 137 541C91.3 541 45.7 541 22.8 541L0 541Z" fill="#03392d"></path></svg>